<svg width="300" height="135" viewBox="0 0 300 135" fill="none" xmlns="http://www.w3.org/2000/svg">
<g clip-path="url(#clip0_22_5)">
<path d="M17.2666 56.584L9.19531 80H4.31543L14.4834 52.9844H17.6006L17.2666 56.584ZM24.0205 80L15.9307 56.584L15.5781 52.9844H18.7139L28.9189 80H24.0205ZM23.6309 69.9805V73.6729H8.93555V69.9805H23.6309ZM39.792 80H34.0215L34.0586 76.3076H39.792C41.4619 76.3076 42.8597 75.9427 43.9854 75.2129C45.1234 74.4831 45.9769 73.4378 46.5459 72.0771C47.1273 70.7165 47.418 69.096 47.418 67.2158V65.75C47.418 64.2904 47.251 62.9977 46.917 61.8721C46.5954 60.7464 46.113 59.8001 45.4697 59.0332C44.8389 58.2663 44.0596 57.6849 43.1318 57.2891C42.2165 56.8932 41.1589 56.6953 39.959 56.6953H33.9102V52.9844H39.959C41.7526 52.9844 43.3916 53.2874 44.876 53.8936C46.3604 54.4873 47.6406 55.347 48.7168 56.4727C49.8053 57.5983 50.6403 58.9466 51.2217 60.5176C51.8031 62.0885 52.0938 63.8451 52.0938 65.7871V67.2158C52.0938 69.1579 51.8031 70.9144 51.2217 72.4854C50.6403 74.0563 49.8053 75.4046 48.7168 76.5303C47.6283 77.6436 46.3294 78.5033 44.8203 79.1094C43.3236 79.7031 41.6475 80 39.792 80ZM36.6006 52.9844V80H31.9434V52.9844H36.6006ZM65.6201 75.0645L72.7266 52.9844H77.8662L68.1807 80H64.7109L65.6201 75.0645ZM59.0518 52.9844L66.1025 75.0645L67.0674 80H63.5791L53.9307 52.9844H59.0518ZM98.5732 76.3076V80H84.2305V76.3076H98.5732ZM85.5479 52.9844V80H80.8906V52.9844H85.5479ZM96.6992 64.2656V67.9023H84.2305V64.2656H96.6992ZM98.4805 52.9844V56.6953H84.2305V52.9844H98.4805ZM102.377 52.9844H111.933C113.986 52.9844 115.736 53.2936 117.184 53.9121C118.631 54.5306 119.738 55.446 120.505 56.6582C121.284 57.8581 121.674 59.3424 121.674 61.1113C121.674 62.4596 121.426 63.6471 120.932 64.6738C120.437 65.7005 119.738 66.5664 118.835 67.2715C117.932 67.9642 116.856 68.5023 115.606 68.8857L114.196 69.5723H105.605L105.568 65.8799H112.007C113.12 65.8799 114.048 65.682 114.79 65.2861C115.532 64.8903 116.089 64.3522 116.46 63.6719C116.843 62.9792 117.035 62.1999 117.035 61.334C117.035 60.3939 116.85 59.5775 116.479 58.8848C116.12 58.1797 115.563 57.6416 114.809 57.2705C114.054 56.887 113.095 56.6953 111.933 56.6953H107.034V80H102.377V52.9844ZM117.796 80L111.45 67.8652L116.33 67.8467L122.769 79.7588V80H117.796ZM136.443 67.791H129.56L129.522 64.3955H135.534C136.549 64.3955 137.408 64.2471 138.113 63.9502C138.831 63.641 139.375 63.2018 139.746 62.6328C140.117 62.0514 140.303 61.3525 140.303 60.5361C140.303 59.6331 140.13 58.8971 139.783 58.3281C139.437 57.7591 138.905 57.3447 138.188 57.085C137.482 56.8252 136.579 56.6953 135.479 56.6953H130.97V80H126.312V52.9844H135.479C136.963 52.9844 138.286 53.1266 139.449 53.4111C140.624 53.6956 141.62 54.141 142.437 54.7471C143.265 55.3408 143.89 56.0954 144.311 57.0107C144.743 57.9261 144.96 59.0146 144.96 60.2764C144.96 61.3896 144.694 62.4102 144.162 63.3379C143.63 64.2533 142.845 65.0016 141.806 65.583C140.767 66.1644 139.474 66.5107 137.928 66.6221L136.443 67.791ZM136.239 80H128.094L130.19 76.3076H136.239C137.291 76.3076 138.169 76.1344 138.874 75.7881C139.579 75.4294 140.105 74.9408 140.451 74.3223C140.81 73.6914 140.989 72.9554 140.989 72.1143C140.989 71.236 140.835 70.4753 140.525 69.832C140.216 69.1764 139.728 68.6755 139.06 68.3291C138.392 67.9704 137.52 67.791 136.443 67.791H131.211L131.248 64.3955H138.058L139.115 65.6758C140.6 65.7253 141.818 66.0531 142.771 66.6592C143.735 67.2653 144.453 68.0508 144.923 69.0156C145.393 69.9805 145.628 71.0195 145.628 72.1328C145.628 73.8522 145.251 75.2933 144.496 76.4561C143.754 77.6188 142.684 78.5033 141.286 79.1094C139.888 79.7031 138.206 80 136.239 80Z" fill="url(#paint0_linear_22_5)"/>
<path d="M170.603 74.5635C170.603 74.1182 170.491 73.7161 170.269 73.3574C170.046 72.9863 169.619 72.6523 168.988 72.3555C168.37 72.0586 167.454 71.7865 166.242 71.5391C165.178 71.304 164.201 71.0257 163.311 70.7041C162.432 70.3701 161.678 69.9681 161.047 69.498C160.416 69.028 159.927 68.4714 159.581 67.8281C159.235 67.1849 159.062 66.4427 159.062 65.6016C159.062 64.7852 159.241 64.012 159.6 63.2822C159.958 62.5524 160.472 61.9092 161.14 61.3525C161.808 60.7959 162.618 60.3568 163.57 60.0352C164.535 59.7135 165.611 59.5527 166.799 59.5527C168.481 59.5527 169.922 59.8372 171.122 60.4062C172.334 60.9629 173.262 61.7236 173.905 62.6885C174.549 63.641 174.87 64.7171 174.87 65.917H170.398C170.398 65.3851 170.262 64.8903 169.99 64.4326C169.73 63.9626 169.335 63.5853 168.803 63.3008C168.271 63.0039 167.603 62.8555 166.799 62.8555C166.032 62.8555 165.395 62.9792 164.888 63.2266C164.393 63.4616 164.022 63.7708 163.774 64.1543C163.539 64.5378 163.422 64.9583 163.422 65.416C163.422 65.75 163.484 66.0531 163.607 66.3252C163.743 66.585 163.966 66.8262 164.275 67.0488C164.585 67.2591 165.005 67.457 165.537 67.6426C166.081 67.8281 166.762 68.0075 167.578 68.1807C169.112 68.5023 170.429 68.9167 171.53 69.4238C172.644 69.9186 173.497 70.5618 174.091 71.3535C174.685 72.1328 174.981 73.1224 174.981 74.3223C174.981 75.2129 174.79 76.0293 174.406 76.7715C174.035 77.5013 173.491 78.1383 172.773 78.6826C172.056 79.2145 171.196 79.6289 170.194 79.9258C169.205 80.2227 168.091 80.3711 166.854 80.3711C165.036 80.3711 163.496 80.0495 162.234 79.4062C160.973 78.7507 160.014 77.9157 159.358 76.9014C158.715 75.8747 158.394 74.8109 158.394 73.71H162.717C162.766 74.5387 162.995 75.2005 163.403 75.6953C163.824 76.1777 164.343 76.5303 164.962 76.7529C165.593 76.9632 166.242 77.0684 166.91 77.0684C167.714 77.0684 168.388 76.9632 168.933 76.7529C169.477 76.5303 169.891 76.2334 170.176 75.8623C170.46 75.4788 170.603 75.0459 170.603 74.5635ZM178.043 70.1846V69.7578C178.043 68.3105 178.253 66.9684 178.674 65.7314C179.094 64.4821 179.701 63.3997 180.492 62.4844C181.296 61.5566 182.273 60.8392 183.424 60.332C184.587 59.8125 185.898 59.5527 187.357 59.5527C188.829 59.5527 190.141 59.8125 191.291 60.332C192.454 60.8392 193.437 61.5566 194.241 62.4844C195.045 63.3997 195.658 64.4821 196.078 65.7314C196.499 66.9684 196.709 68.3105 196.709 69.7578V70.1846C196.709 71.6318 196.499 72.974 196.078 74.2109C195.658 75.4479 195.045 76.5303 194.241 77.458C193.437 78.3734 192.46 79.0908 191.31 79.6104C190.159 80.1175 188.854 80.3711 187.395 80.3711C185.923 80.3711 184.605 80.1175 183.442 79.6104C182.292 79.0908 181.315 78.3734 180.511 77.458C179.707 76.5303 179.094 75.4479 178.674 74.2109C178.253 72.974 178.043 71.6318 178.043 70.1846ZM182.515 69.7578V70.1846C182.515 71.0876 182.607 71.9411 182.793 72.7451C182.979 73.5492 183.269 74.2542 183.665 74.8604C184.061 75.4665 184.568 75.9427 185.187 76.2891C185.805 76.6354 186.541 76.8086 187.395 76.8086C188.223 76.8086 188.941 76.6354 189.547 76.2891C190.165 75.9427 190.673 75.4665 191.068 74.8604C191.464 74.2542 191.755 73.5492 191.94 72.7451C192.138 71.9411 192.237 71.0876 192.237 70.1846V69.7578C192.237 68.8672 192.138 68.026 191.94 67.2344C191.755 66.4303 191.458 65.7191 191.05 65.1006C190.654 64.4821 190.147 63.9997 189.528 63.6533C188.922 63.2946 188.199 63.1152 187.357 63.1152C186.516 63.1152 185.786 63.2946 185.168 63.6533C184.562 63.9997 184.061 64.4821 183.665 65.1006C183.269 65.7191 182.979 66.4303 182.793 67.2344C182.607 68.026 182.515 68.8672 182.515 69.7578ZM205.244 51.5V80H200.754V51.5H205.244ZM222.222 75.2686V59.9238H226.712V80H222.481L222.222 75.2686ZM222.853 71.0938L224.355 71.0566C224.355 72.4049 224.207 73.6481 223.91 74.7861C223.613 75.9118 223.156 76.8952 222.537 77.7363C221.919 78.5651 221.127 79.2145 220.162 79.6846C219.197 80.1423 218.041 80.3711 216.692 80.3711C215.715 80.3711 214.818 80.2288 214.002 79.9443C213.186 79.6598 212.48 79.2207 211.887 78.627C211.305 78.0332 210.854 77.2601 210.532 76.3076C210.211 75.3551 210.05 74.2171 210.05 72.8936V59.9238H214.521V72.9307C214.521 73.6605 214.608 74.2728 214.781 74.7676C214.954 75.25 215.189 75.6396 215.486 75.9365C215.783 76.2334 216.13 76.4437 216.525 76.5674C216.921 76.6911 217.342 76.7529 217.787 76.7529C219.061 76.7529 220.063 76.5055 220.793 76.0107C221.535 75.5036 222.061 74.8232 222.37 73.9697C222.692 73.1162 222.853 72.1576 222.853 71.0938ZM240.498 59.9238V63.1895H229.18V59.9238H240.498ZM232.445 55.0068H236.917V74.4521C236.917 75.0706 237.004 75.5469 237.177 75.8809C237.362 76.2025 237.616 76.4189 237.938 76.5303C238.259 76.6416 238.636 76.6973 239.069 76.6973C239.379 76.6973 239.675 76.6787 239.96 76.6416C240.244 76.6045 240.473 76.5674 240.646 76.5303L240.665 79.9443C240.294 80.0557 239.861 80.1546 239.366 80.2412C238.884 80.3278 238.327 80.3711 237.696 80.3711C236.67 80.3711 235.76 80.1917 234.969 79.833C234.177 79.4619 233.559 78.862 233.113 78.0332C232.668 77.2044 232.445 76.1035 232.445 74.7305V55.0068ZM248.736 59.9238V80H244.246V59.9238H248.736ZM243.949 54.6543C243.949 53.974 244.172 53.4111 244.617 52.9658C245.075 52.5081 245.706 52.2793 246.51 52.2793C247.301 52.2793 247.926 52.5081 248.384 52.9658C248.841 53.4111 249.07 53.974 249.07 54.6543C249.07 55.3223 248.841 55.8789 248.384 56.3242C247.926 56.7695 247.301 56.9922 246.51 56.9922C245.706 56.9922 245.075 56.7695 244.617 56.3242C244.172 55.8789 243.949 55.3223 243.949 54.6543ZM252.781 70.1846V69.7578C252.781 68.3105 252.992 66.9684 253.412 65.7314C253.833 64.4821 254.439 63.3997 255.23 62.4844C256.035 61.5566 257.012 60.8392 258.162 60.332C259.325 59.8125 260.636 59.5527 262.096 59.5527C263.568 59.5527 264.879 59.8125 266.029 60.332C267.192 60.8392 268.175 61.5566 268.979 62.4844C269.784 63.3997 270.396 64.4821 270.816 65.7314C271.237 66.9684 271.447 68.3105 271.447 69.7578V70.1846C271.447 71.6318 271.237 72.974 270.816 74.2109C270.396 75.4479 269.784 76.5303 268.979 77.458C268.175 78.3734 267.198 79.0908 266.048 79.6104C264.897 80.1175 263.592 80.3711 262.133 80.3711C260.661 80.3711 259.343 80.1175 258.181 79.6104C257.03 79.0908 256.053 78.3734 255.249 77.458C254.445 76.5303 253.833 75.4479 253.412 74.2109C252.992 72.974 252.781 71.6318 252.781 70.1846ZM257.253 69.7578V70.1846C257.253 71.0876 257.346 71.9411 257.531 72.7451C257.717 73.5492 258.007 74.2542 258.403 74.8604C258.799 75.4665 259.306 75.9427 259.925 76.2891C260.543 76.6354 261.279 76.8086 262.133 76.8086C262.962 76.8086 263.679 76.6354 264.285 76.2891C264.904 75.9427 265.411 75.4665 265.807 74.8604C266.202 74.2542 266.493 73.5492 266.679 72.7451C266.877 71.9411 266.976 71.0876 266.976 70.1846V69.7578C266.976 68.8672 266.877 68.026 266.679 67.2344C266.493 66.4303 266.196 65.7191 265.788 65.1006C265.392 64.4821 264.885 63.9997 264.267 63.6533C263.66 63.2946 262.937 63.1152 262.096 63.1152C261.255 63.1152 260.525 63.2946 259.906 63.6533C259.3 63.9997 258.799 64.4821 258.403 65.1006C258.007 65.7191 257.717 66.4303 257.531 67.2344C257.346 68.026 257.253 68.8672 257.253 69.7578ZM279.63 64.21V80H275.158V59.9238H279.37L279.63 64.21ZM278.832 69.2197L277.385 69.2012C277.397 67.7786 277.595 66.4736 277.979 65.2861C278.374 64.0986 278.919 63.0781 279.611 62.2246C280.316 61.3711 281.158 60.7155 282.135 60.2578C283.112 59.7878 284.201 59.5527 285.4 59.5527C286.365 59.5527 287.237 59.6888 288.017 59.9609C288.808 60.2207 289.482 60.6475 290.039 61.2412C290.608 61.835 291.041 62.6081 291.338 63.5605C291.635 64.5007 291.783 65.6572 291.783 67.0303V80H287.293V67.0117C287.293 66.0469 287.151 65.2861 286.866 64.7295C286.594 64.1605 286.192 63.7585 285.66 63.5234C285.141 63.276 284.491 63.1523 283.712 63.1523C282.945 63.1523 282.258 63.3132 281.652 63.6348C281.046 63.9564 280.533 64.3955 280.112 64.9521C279.704 65.5088 279.389 66.152 279.166 66.8818C278.943 67.6117 278.832 68.391 278.832 69.2197Z" fill="url(#paint1_linear_22_5)"/>
<path d="M151.25 51V84" stroke="#B6ACAC" stroke-width="0.5"/>
</g>
<defs>
<linearGradient id="paint0_linear_22_5" x1="149.5" y1="45" x2="149.5" y2="90" gradientUnits="userSpaceOnUse">
<stop stop-color="#0AA9DB" stop-opacity="0.51"/>
<stop offset="1" stop-color="#009FD1"/>
</linearGradient>
<linearGradient id="paint1_linear_22_5" x1="149.5" y1="45" x2="149.5" y2="90" gradientUnits="userSpaceOnUse">
<stop stop-color="#E6F3FF"/>
<stop offset="1" stop-color="white"/>
</linearGradient>
<clipPath id="clip0_22_5">
<rect width="300" height="135" fill="white"/>
</clipPath>
</defs>
</svg>
