<svg width="300" height="135" viewBox="0 0 300 135" fill="none" xmlns="http://www.w3.org/2000/svg">
<g clip-path="url(#clip0_22_2)">
<path d="M271.367 43.6299C271.367 40.7129 268.995 38.3485 266.082 38.3485C263.162 38.3485 260.79 40.7129 260.79 43.6299V54.7396C260.79 57.6723 263.162 60.0379 266.082 60.0379C268.995 60.0379 271.367 57.6723 271.367 54.7396V43.6299ZM242.291 29.0485C242.291 26.1326 239.926 23.7637 236.94 23.7637C234.019 23.7637 231.654 26.1326 231.654 29.0485V54.7396C231.654 57.6723 234.019 60.0379 236.94 60.0379C239.926 60.0379 242.291 57.6723 242.291 54.7396V29.0485ZM213.155 9.09993C213.155 6.18297 210.79 3.81738 207.871 3.81738C204.95 3.81738 202.585 6.18297 202.585 9.09993V65.2968C202.585 68.2307 204.95 70.5951 207.871 70.5951C210.79 70.5951 213.155 68.2307 213.155 65.2968V9.09993ZM184.013 29.0485C184.013 26.1326 181.648 23.7637 178.728 23.7637C175.814 23.7637 173.442 26.1326 173.442 29.0485V54.7396C173.442 57.6723 175.814 60.0379 178.728 60.0379C181.648 60.0379 184.013 57.6723 184.013 54.7396V29.0485ZM154.877 43.6299C154.877 40.7129 152.513 38.3485 149.609 38.3485C146.689 38.3485 144.307 40.7129 144.307 43.6299V54.7396C144.307 57.6723 146.689 60.0379 149.609 60.0379C152.513 60.0379 154.877 57.6723 154.877 54.7396V43.6299ZM125.789 29.0485C125.789 26.1326 123.406 23.7637 120.487 23.7637C117.567 23.7637 115.184 26.1326 115.184 29.0485V54.7396C115.184 57.6723 117.567 60.0379 120.487 60.0379C123.406 60.0379 125.789 57.6723 125.789 54.7396V29.0485ZM96.6663 9.09993C96.6663 6.18297 94.2838 3.81738 91.3635 3.81738C88.4443 3.81738 86.0618 6.18297 86.0618 9.09993V65.2968C86.0618 68.2307 88.4443 70.5951 91.3635 70.5951C94.2838 70.5951 96.6663 68.2307 96.6663 65.2968V9.09993ZM67.5429 29.0485C67.5429 26.1326 65.1616 23.7637 62.2412 23.7637C59.3209 23.7637 56.9395 26.1326 56.9395 29.0485V54.7396C56.9395 57.6723 59.3209 60.0379 62.2412 60.0379C65.1616 60.0379 67.5429 57.6723 67.5429 54.7396V29.0485ZM38.4207 43.6299C38.4207 40.7129 36.0393 38.3485 33.119 38.3485C30.202 38.3485 27.8173 40.7129 27.8173 43.6299V54.7396C27.8173 57.6723 30.202 60.0379 33.119 60.0379C36.0393 60.0379 38.4207 57.6723 38.4207 54.7396V43.6299ZM147.878 89.6958C147.56 89.6089 142.668 88.3472 137.469 88.3472C127.625 88.3472 121.699 93.6625 121.699 101.578C121.699 108.584 126.657 112.078 132.607 113.958C133.266 114.176 134.238 114.48 134.886 114.694C137.534 115.528 139.648 116.766 139.648 118.91C139.648 121.309 137.205 122.861 131.893 122.861C127.225 122.861 122.75 121.526 121.807 121.288V131.027C122.333 131.139 127.651 132.183 133.333 132.183C141.505 132.183 150.854 128.612 150.854 117.981C150.854 112.825 147.697 108.078 140.766 105.875L137.819 104.937C136.062 104.382 132.924 103.483 132.924 100.907C132.924 98.8717 135.249 97.4386 139.53 97.4386C143.224 97.4386 147.719 98.6801 147.878 98.7297V89.6958ZM238.128 110.265C238.128 116.423 233.412 121.404 227.083 121.404C220.747 121.404 216.043 116.423 216.043 110.265C216.043 104.12 220.747 99.1367 227.083 99.1367C233.412 99.1367 238.128 104.12 238.128 110.265ZM227.083 88.3608C214.066 88.3608 204.731 98.1783 204.731 110.265C204.731 122.372 214.066 132.183 227.083 132.183C240.098 132.183 249.447 122.372 249.447 110.265C249.447 98.1783 240.098 88.3608 227.083 88.3608ZM82.0184 89.8773C81.0149 89.5796 77.3052 88.3608 72.2809 88.3608C59.2848 88.3608 49.7446 97.6269 49.7446 110.265C49.7446 123.901 60.2759 132.183 72.2809 132.183C77.0504 132.183 80.6913 131.053 82.0184 130.676V119.316C81.5595 119.571 78.0686 121.562 73.0465 121.562C65.9317 121.562 61.3426 116.555 61.3426 110.265C61.3426 103.784 66.1301 98.9777 73.0465 98.9777C78.1543 98.9777 81.5888 101.013 82.0184 101.237V89.8773ZM193.488 89.8773C192.476 89.5796 188.763 88.3608 183.756 88.3608C170.74 88.3608 161.2 97.6269 161.2 110.265C161.2 123.901 171.744 132.183 183.756 132.183C188.499 132.183 192.146 131.053 193.488 130.676V119.316C193.018 119.571 189.523 121.562 184.502 121.562C177.393 121.562 172.808 116.555 172.808 110.265C172.808 103.784 177.598 98.9777 184.502 98.9777C189.609 98.9777 193.051 101.013 193.488 101.237V89.8773ZM107.378 131.429H96.6979V89.1106H107.378V131.429Z" fill="#049FD9"/>
</g>
<defs>
<clipPath id="clip0_22_2">
<rect width="300" height="135" fill="white"/>
</clipPath>
</defs>
</svg>
