<svg width="300" height="135" viewBox="0 0 300 135" fill="none" xmlns="http://www.w3.org/2000/svg">
<g clip-path="url(#clip0_22_13)">
<mask id="mask0_22_13" style="mask-type:luminance" maskUnits="userSpaceOnUse" x="0" y="29" width="300" height="78">
<path d="M300 29H0V106.419H300V29Z" fill="white"/>
</mask>
<g mask="url(#mask0_22_13)">
<mask id="mask1_22_13" style="mask-type:luminance" maskUnits="userSpaceOnUse" x="0" y="29" width="300" height="78">
<path d="M300 29H0V106.419H300V29Z" fill="white"/>
</mask>
<g mask="url(#mask1_22_13)">
<path fill-rule="evenodd" clip-rule="evenodd" d="M39.2461 29C16.8814 29 0 45.6671 0 67.7097C0 89.7523 16.8814 106.419 39.2461 106.419C61.6113 106.419 78.4929 89.7523 78.4929 67.7097C78.4929 45.6671 61.6113 29 39.2461 29ZM56.9884 67.7097C57.0965 78.1406 49.4613 85.9897 39.2461 85.9897C29.0315 85.9897 21.3963 78.1406 21.5044 67.7097C21.3963 57.2786 29.0315 49.4295 39.2461 49.4295C49.4613 49.4295 57.0965 57.2786 56.9884 67.7097ZM116.13 30.0705H84.9494V105.338H106.454V94.5852C106.454 89.2094 109.68 85.9835 115.055 85.9835H116.13C136.774 85.9835 148.71 75.3384 148.602 58.0269C148.71 40.7155 136.774 30.0705 116.13 30.0705ZM127.098 58.0269C127.098 64.6935 122.905 68.7803 115.055 68.7803H106.454V47.2738H115.055C122.905 47.2738 127.098 51.3606 127.098 58.0269ZM151.831 67.7097C151.831 45.0227 167.637 29 190.002 29C212.367 29 227.099 45.0227 227.099 67.7097C227.099 69.1664 227.001 70.9671 226.904 72.7458C226.858 73.5942 226.812 74.4381 226.777 75.2368H174.09C176.885 82.4394 183.66 87.0645 192.154 87.0645C197.96 87.0645 202.477 85.2374 205.595 83.3C211.401 79.7516 219.144 78.3548 224.734 89.3219C218.284 99.5368 205.917 106.419 191.615 106.419C171.722 106.419 151.831 93.5168 151.831 67.7097ZM205.593 60.1826C203.549 53.086 198.174 48.0326 189.572 48.1408C180.97 48.0326 175.809 53.086 173.765 60.1826H205.593ZM255.595 61.2573C255.595 53.9445 259.466 49.4295 265.81 49.4295C272.155 49.4295 276.024 53.9465 276.024 61.2573V105.343H289.466C294.842 105.343 298.069 102.116 298.069 96.741V58.1392C298.069 39.9672 288.929 29 273.66 29C265.703 29 259.575 32.4402 255.595 38.5704V30.0747H233.553V105.343H255.595V61.2573Z" fill="#663399"/>
</g>
</g>
</g>
<defs>
<clipPath id="clip0_22_13">
<rect width="300" height="135" fill="white"/>
</clipPath>
</defs>
</svg>
