<svg width="70" height="70" viewBox="0 0 70 70" fill="none" xmlns="http://www.w3.org/2000/svg">
<g clip-path="url(#clip0_14_51)">
<path d="M3.89936 70H2.05078C0.918203 70 0 69.0818 0 67.9492V66.1006C0 61.1532 1.26314 56.2475 3.65271 51.9135C6.03381 47.5952 9.49375 43.9142 13.6586 41.2686C14.0522 41.0184 14.5193 40.91 14.9828 40.9611C15.4463 41.0121 15.8786 41.2197 16.2083 41.5495L28.4504 53.7917C28.7801 54.1214 28.9876 54.5537 29.0387 55.0172C29.0897 55.4807 28.9813 55.9478 28.7313 56.3414C26.0855 60.5062 22.4045 63.9662 18.0862 66.3473C13.7524 68.737 8.84666 70 3.89936 70Z" fill="#EF570B"/>
<path d="M2.05078 70H3.89935C8.84666 70 13.7524 68.737 18.0864 66.3473C22.4046 63.9662 26.0857 60.5062 28.7314 56.3414C28.9815 55.9478 29.09 55.4807 29.0389 55.0172C28.9878 54.5537 28.7803 54.1214 28.4505 53.7917L22.3294 47.6707L0.600601 69.3993C0.790822 69.59 1.01686 69.7413 1.26573 69.8444C1.51461 69.9475 1.7814 70.0003 2.05078 70Z" fill="#D5480B"/>
<path d="M44.0821 66.6389C43.7012 66.6389 43.3279 66.5329 43.0039 66.3326C42.6799 66.1324 42.4181 65.8459 42.2477 65.5052L36.2191 53.4483C36.0038 53.0176 35.9469 52.5249 36.0583 52.0565C36.1697 51.5881 36.4424 51.1739 36.8286 50.8863L54.6466 37.619C54.9407 37.4 55.2882 37.2638 55.6528 37.2248C56.0174 37.1857 56.3859 37.2451 56.7197 37.3968C57.0536 37.5485 57.3407 37.7869 57.5511 38.0872C57.7615 38.3876 57.8875 38.7388 57.916 39.1044C58.5847 47.6824 55.4803 56.09 49.3989 62.1714L45.532 66.0383C45.1474 66.4228 44.6259 66.6388 44.0821 66.6389Z" fill="url(#paint0_linear_14_51)"/>
<path d="M17.4679 33.9977C17.1579 33.9977 16.8446 33.9274 16.5517 33.781L4.49476 27.7524C4.20405 27.6071 3.95204 27.3949 3.75949 27.1331C3.56695 26.8713 3.43939 26.5674 3.38734 26.2467C3.33529 25.9259 3.36024 25.5973 3.46012 25.2881C3.56001 24.9788 3.73197 24.6977 3.96183 24.468L7.82892 20.6011C13.9102 14.5197 22.3184 11.4162 30.8957 12.084C31.2613 12.1125 31.6125 12.2386 31.9129 12.449C32.2132 12.6594 32.4516 12.9464 32.6033 13.2803C32.755 13.6141 32.8144 13.9825 32.7754 14.3471C32.7363 14.7118 32.6002 15.0592 32.3813 15.3534L19.1138 33.1714C18.9229 33.428 18.6747 33.6363 18.3889 33.7798C18.1031 33.9233 17.7877 33.9979 17.4679 33.9977Z" fill="url(#paint1_linear_14_51)"/>
<path d="M67.494 22.4875C62.2608 22.2026 57.35 20.0171 53.6664 16.3337C49.983 12.6502 47.7974 7.73937 47.5125 2.50605L47.4753 1.82314C40.7002 3.85287 34.4258 7.53826 29.279 12.685L29.1774 12.7868C21.2179 20.7462 15.178 30.1261 11.2256 40.666C11.0873 41.0347 11.0581 41.4354 11.1415 41.8202C11.2248 42.205 11.4172 42.5577 11.6956 42.8362L27.1636 58.3041C27.4419 58.5826 27.7946 58.7751 28.1795 58.8584C28.5643 58.9418 28.965 58.9126 29.3337 58.7743C39.8735 54.8219 49.2533 48.7821 57.2128 40.8224L57.315 40.7203C62.4615 35.5738 66.1466 29.2996 68.1763 22.5247L67.494 22.4875Z" fill="#E6F3FF"/>
<path d="M27.1638 58.3043C27.4422 58.5828 27.7949 58.7752 28.1797 58.8586C28.5646 58.9419 28.9653 58.9127 29.334 58.7744C39.8737 54.822 49.2536 48.7822 57.2132 40.8226L57.3154 40.7205C62.4619 35.5739 66.147 29.2998 68.1767 22.5248L67.4939 22.4876C62.2608 22.2027 57.35 20.0173 53.6663 16.3338L19.4298 50.5702L27.1638 58.3043Z" fill="#D2DCF0"/>
<path d="M69.3015 2.34937C69.2269 1.93899 69.0289 1.56112 68.734 1.26618C68.439 0.971233 68.0611 0.773247 67.6508 0.698632C60.3302 -0.632598 52.9098 -0.0366411 46.0584 2.27486L46.1455 3.87324C46.4304 9.10643 48.6158 14.0172 52.2993 17.7008C55.9828 21.3842 60.8936 23.5698 66.1269 23.8547L67.7253 23.9418C70.0366 17.0905 70.6325 9.67012 69.3015 2.34937Z" fill="url(#paint2_linear_14_51)"/>
<path d="M52.2992 17.7008C55.9826 21.3842 60.8934 23.5698 66.1268 23.8547L67.7251 23.9418C70.0366 17.0905 70.6325 9.67025 69.3015 2.34937C69.227 1.93891 69.029 1.56099 68.7339 1.26615L52.2992 17.7008Z" fill="url(#paint3_linear_14_51)"/>
<path d="M43.1152 35.7716C40.7415 35.7716 38.5097 34.8473 36.8314 33.1688C35.1529 31.4904 34.2284 29.2586 34.2284 26.8849C34.2284 24.5112 35.1527 22.2794 36.8314 20.6011C38.5097 18.9226 40.7415 17.9982 43.1152 17.9982C45.4889 17.9982 47.7207 18.9226 49.3991 20.6011C51.0776 22.2794 52.0019 24.5112 52.0019 26.8849C52.0019 29.2586 51.0776 31.4904 49.3991 33.1688C47.7206 34.8473 45.4889 35.7716 43.1152 35.7716ZM15.0795 56.9715C14.8102 56.9719 14.5434 56.919 14.2946 56.8159C14.0457 56.7128 13.8197 56.5615 13.6295 56.3708C12.8286 55.57 12.8286 54.2715 13.6295 53.4706L31.0308 36.0691C31.8315 35.2684 33.1301 35.2684 33.931 36.0691C34.7319 36.8699 34.7319 38.1685 33.931 38.9694L16.5296 56.3708C16.3394 56.5615 16.1133 56.7127 15.8645 56.8158C15.6157 56.9189 15.3489 56.9718 15.0795 56.9715Z" fill="url(#paint4_linear_14_51)"/>
<path d="M36.8313 33.1688C38.5097 34.8473 40.7415 35.7716 43.1152 35.7716C45.4889 35.7716 47.7207 34.8473 49.3991 33.1688C51.0776 31.4904 52.0019 29.2586 52.0019 26.8849C52.0019 24.5112 51.0776 22.2794 49.3991 20.6011L36.8313 33.1688ZM13.6293 56.3708C14.0298 56.7712 14.5547 56.9715 15.0794 56.9715C15.6041 56.9715 16.1291 56.7712 16.5294 56.3708L33.9309 38.9694C34.7318 38.1686 34.7318 36.87 33.9309 36.0691H33.9307L13.6293 56.3708Z" fill="url(#paint5_linear_14_51)"/>
<path d="M43.1152 31.6701C41.837 31.6701 40.6354 31.1724 39.7316 30.2686C38.8277 29.3649 38.3299 28.1631 38.3299 26.8849C38.3299 25.6067 38.8277 24.4051 39.7316 23.5013C40.6353 22.5974 41.837 22.0998 43.1152 22.0998C44.3934 22.0998 45.595 22.5974 46.4989 23.5013C47.4027 24.405 47.9004 25.6067 47.9004 26.8849C47.9004 28.1631 47.4027 29.3647 46.4989 30.2686C45.595 31.1724 44.3933 31.6701 43.1152 31.6701Z" fill="#84D6FF"/>
<path d="M39.7316 30.2686C40.6353 31.1724 41.837 31.6701 43.1152 31.6701C44.3934 31.6701 45.595 31.1724 46.4989 30.2686C47.4027 29.3649 47.9004 28.1631 47.9004 26.8849C47.9004 25.6067 47.4027 24.4051 46.4989 23.5013L39.7316 30.2686Z" fill="#37C3FF"/>
</g>
<defs>
<linearGradient id="paint0_linear_14_51" x1="47.004" y1="37.2131" x2="47.004" y2="66.6389" gradientUnits="userSpaceOnUse">
<stop stop-color="#9F3684"/>
<stop offset="1" stop-color="#7232A3"/>
</linearGradient>
<linearGradient id="paint1_linear_14_51" x1="18.074" y1="11.9948" x2="18.074" y2="33.9977" gradientUnits="userSpaceOnUse">
<stop stop-color="#9F3684"/>
<stop offset="1" stop-color="#7232A3"/>
</linearGradient>
<linearGradient id="paint2_linear_14_51" x1="58.0292" y1="-1.90735e-05" x2="58.0292" y2="23.9418" gradientUnits="userSpaceOnUse">
<stop stop-color="#9F3684"/>
<stop offset="1" stop-color="#7232A3"/>
</linearGradient>
<linearGradient id="paint3_linear_14_51" x1="61.1496" y1="1.26615" x2="61.1496" y2="23.9418" gradientUnits="userSpaceOnUse">
<stop stop-color="#9F3684"/>
<stop offset="1" stop-color="#7232A3"/>
</linearGradient>
<linearGradient id="paint4_linear_14_51" x1="32.5154" y1="17.9982" x2="32.5154" y2="56.9715" gradientUnits="userSpaceOnUse">
<stop stop-color="#EB51FF"/>
<stop offset="1" stop-color="#E033E5"/>
</linearGradient>
<linearGradient id="paint5_linear_14_51" x1="32.8156" y1="20.6011" x2="32.8156" y2="56.9715" gradientUnits="userSpaceOnUse">
<stop stop-color="#9F3684"/>
<stop offset="1" stop-color="#7232A3"/>
</linearGradient>
<clipPath id="clip0_14_51">
<rect width="70" height="70" fill="white"/>
</clipPath>
</defs>
</svg>
